HIERARCHY
ROOT Hips
{
  OFFSET 0 0 0
  CHANNELS 6 Xposition Yposition Zposition Zrotation Yrotation Xrotation
  JOINT LeftThigh
  {
    OFFSET 8.409438 0 -5.917753
    CHANNELS 3 Zrotation Yrotation Xrotation
    JOINT LeftLeg
    {
      OFFSET 0 0 -42.358652
      CHANNELS 3 Zrotation Yrotation Xrotation
      JOINT LeftFoot
      {
        OFFSET 0 0 -39.357303
        CHANNELS 3 Zrotation Yrotation Xrotation
      }
    }
  }
  JOINT RightThigh
  {
    OFFSET -8.409438 0 -5.917753
    CHANNELS 3 Zrotation Yrotation Xrotation
    JOINT RightLeg
    {
      OFFSET 0 0 -42.358652
      CHANNELS 3 Zrotation Yrotation Xrotation
      JOINT RightFoot
      {
        OFFSET 0 0 -39.357303
        CHANNELS 3 Zrotation Yrotation Xrotation
      }
    }
  }
  JOINT SpineLow
  {
    OFFSET 0 0 4.719101
    CHANNELS 3 Zrotation Yrotation Xrotation
    JOINT SpineMid
    {
      OFFSET 0 0 12.899191
      CHANNELS 3 Zrotation Yrotation Xrotation
      JOINT Chest
      {
        OFFSET 0 0 12.899191
        CHANNELS 3 Zrotation Yrotation Xrotation
        JOINT LeftShoulder
        {
          OFFSET 7.550562 1.41573 9.438202
          CHANNELS 3 Zrotation Yrotation Xrotation
          JOINT LeftArm
          {
            OFFSET 9.155056 0 4.247191
            CHANNELS 3 Zrotation Yrotation Xrotation
            JOINT LeftForearm
            {
              OFFSET 0 0 25.771955
              CHANNELS 3 Zrotation Yrotation Xrotation
              JOINT LeftHand
              {
                OFFSET 0 0 25.197169
                CHANNELS 3 Zrotation Yrotation Xrotation
              }
            }
          }
        }
        JOINT RightShoulder
        {
          OFFSET -7.550562 1.41573 9.438202
          CHANNELS 3 Zrotation Yrotation Xrotation
          JOINT RightArm
          {
            OFFSET -9.155056 0 4.247191
            CHANNELS 3 Zrotation Yrotation Xrotation
            JOINT RightForearm
            {
              OFFSET 0 0 -25.771955
              CHANNELS 3 Zrotation Yrotation Xrotation
              JOINT RightHand
              {
                OFFSET 0 0 -25.197169
                CHANNELS 3 Zrotation Yrotation Xrotation
              }
            }
          }
        }
        JOINT Neck
        {
          OFFSET 0 0 15.101124
          CHANNELS 3 Zrotation Yrotation Xrotation
          JOINT Head
          {
            OFFSET 0 0 11.325843
            CHANNELS 3 Zrotation Yrotation Xrotation
            End Site
            {
              OFFSET 0 0 14.157303
            }
          }
        }
      }
    }
  }
}
MOTION
Frames: 5
Frame Time: 0.0
0.0  89.887642  0.0  6.59609  -14.675334  -99.612129  6.769617  -6.068666  7.341108  11.294262  -0.303581  21.850765  5.569126  1.78783  2.374163  -2.84048  15.882662  -5.865284  -0.532169  5.207196  17.545998  7.575565  1.757027  -0.890646  6.244142  1.529175  1.109668  17.152089  3.861316  3.406922  17.152088  3.861316  3.406922  0.045274  6.195231  11.872994  175.493103  16.306447  -177.58954  -16.573175  43.800928  109.204807  72.818939  -25.043178  22.943236  -1.480747  -6.740856  7.201256  -23.329568  58.284408  -89.365486  -19.99508  -9.804473  -96.869929  79.247909  -10.321783  6.20209  -19.78638  -3.235018  5.851594  -14.806512  -2.619297  4.287986  
0.0  89.887642  0.0  6.568219  -18.033511  -100.57116  9.13248  -6.152598  8.363736  10.822379  -1.048959  21.973493  5.96708  1.897009  2.48468  -2.742915  15.551737  -5.915456  1.442772  4.765921  17.438233  8.052035  1.672812  -1.029394  6.30393  1.602659  0.987867  17.314032  4.089038  3.099067  17.314031  4.089038  3.099067  4.630612  3.289347  16.052983  172.116601  11.94111  -179.898102  -19.846595  44.383795  106.964862  72.597847  -24.438824  22.440904  -2.175506  -5.289453  4.38239  -29.369072  57.567066  -94.943564  -24.615876  -7.732875  -94.842041  81.011176  -10.065588  7.370713  -19.160052  -4.349858  6.147434  -14.321095  -3.459539  4.476924  
0.0  89.887642  0.0  6.976293  -19.916867  -101.663813  11.879361  -6.559344  9.221067  9.227303  -1.083233  22.199459  6.169555  1.952657  2.661298  -2.710812  15.623396  -5.602267  2.406757  4.724755  17.378736  8.426967  1.53953  -1.159699  6.26231  1.628512  1.104752  17.208712  4.130891  3.420808  17.208713  4.130891  3.420808  6.677546  3.182972  18.300346  169.522351  9.277113  178.466816  -26.31695  49.430829  100.418886  76.443797  -22.263395  22.897934  -2.874122  -2.519259  0.674621  -34.933284  55.976294  -98.251683  -27.631192  -5.461039  -93.824873  82.415041  -10.468751  8.409659  -18.919431  -4.824557  5.648605  -14.137994  -3.797922  4.088867  
0.0  89.887642  0.0  7.461345  -20.41938  -102.826276  14.061695  -7.496869  10.088472  7.525642  -0.336256  22.533313  6.016693  1.925055  2.791064  -2.633003  16.058402  -4.927368  2.130627  4.750211  17.368679  8.679345  1.458989  -1.199977  6.068064  1.743875  1.488663  16.709354  4.357712  4.481925  16.709354  4.357712  4.481925  7.722697  3.739238  17.339688  167.820105  8.388181  176.733344  -30.992449  57.289219  93.838114  79.281591  -23.414303  19.07937  -4.469122  1.03549  -3.849669  -39.93138  53.220377  -100.623955  -29.65613  -2.756491  -92.693728  82.426659  -10.377644  9.337501  -18.575042  -5.284271  4.246164  -13.885424  -4.096907  3.024588  
0.0  89.887642  0.0  6.879201  -20.566362  -103.017978  15.960965  -9.147449  9.762319  5.872567  0.415542  23.2056  5.553083  1.871614  2.769674  -2.369598  15.652762  -4.658434  1.303456  4.720341  17.465802  8.81587  1.510387  -1.16421  6.093252  1.632159  1.417522  16.764328  4.071025  4.261285  16.764329  4.071026  4.261285  6.120843  4.183639  17.114196  166.839713  9.709407  174.885642  -33.701556  64.867264  90.015841  72.535118  -23.906887  17.104378  -7.353422  3.664144  -6.223632  -46.247697  52.284809  -103.984162  -31.395376  -0.279619  -91.076249  81.539196  -9.722345  10.259848  -19.110476  -4.854328  4.028456  -14.292985  -3.771236  2.870669  
